{"title":"Jurassic World Fallen Kingdom 2018 720p HDTS x264 [MW]","magnet":"magnet:?xt=urn:btih:fc518ee2ef60dce52d725cd42bca5d8215c43e96&dn=Jurassic+World+Fallen+Kingdom+2018+720p+HDTS+x264+%5BMW%5D&tr=udp%3A%2F%2Ftracker.leechers-paradise.org%3A6969&tr=udp%3A%2F%2Fzer0day.ch%3A1337&tr=udp%3A%2F%2Fopen.demonii.com%3A1337&tr=udp%3A%2F%2Ftracker.coppersurfer.tk%3A6969&tr=udp%3A%2F%2Fexodus.desync.com%3A6969","uploader":"MFreaky","categoryP":"video","categoryS":"movies","size":"1178408905","seeders":"19","leechers":"34","description":" <a href=\"https://pichub.site/image/I4wB8\" rel=\"nofollow\" target=\"_NEW\">https://pichub.site/image/I4wB8</a> <a href=\"\nhttps://pichub.site/image/I4hf5\" rel=\"nofollow\" target=\"_NEW\">\nhttps://pichub.site/image/I4hf5</a> <a href=\"\nhttps://pichub.site/image/I4ihh\" rel=\"nofollow\" target=\"_NEW\">\nhttps://pichub.site/image/I4ihh</a> <a href=\"\nhttps://pichub.site/image/I4trj\" rel=\"nofollow\" target=\"_NEW\">\nhttps://pichub.site/image/I4trj</a> <a href=\"\nhttps://pichub.site/image/I4zWr\" rel=\"nofollow\" target=\"_NEW\">\nhttps://pichub.site/image/I4zWr</a>\r\n\r\nGeneral\r\nFormat                                   : Matroska\r\nFormat version                           : Version 4 / Version 2\r\nFile size                                : 1.10 GiB\r\nDuration                                 : 1 h 58 min\r\nOverall bit rate                         : 1 328 kb/s\r\n\r\nVideo\r\nID                                       : 1\r\nFormat                                   : AVC\r\nFormat/Info                              : Advanced Video Codec\r\nFormat profile                           : High@L4.1\r\nFormat settings                          : CABAC / 4 Ref Frames\r\nFormat settings, CABAC                   : Yes\r\nFormat settings, RefFrames               : 4 frames\r\nCodec ID                                 : V_MPEG4/ISO/AVC\r\nDuration                                 : 1 h 58 min\r\nBit rate                                 : 1 200 kb/s\r\nWidth                                    : 1 280 pixels\r\nHeight                                   : 540 pixels\r\nDisplay aspect ratio                     : 2.40:1\r\nFrame rate mode                          : Constant\r\nFrame rate                               : 23.976 (24000/1001) FPS\r\nColor space                              : YUV\r\nChroma subsampling                       : 4:2:0\r\nBit depth                                : 8 bits\r\nScan type                                : Progressive\r\nBits/(Pixel*Frame)                       : 0.072\r\nStream size                              : 1 014 MiB (90%)\r\nWriting library                          : x264 core 155 r2901 7d0ff22\r\nDefault                                  : Yes\r\nForced                                   : No\r\n\r\nAudio\r\nID                                       : 2\r\nFormat                                   : AAC\r\nFormat/Info                              : Advanced Audio Codec\r\nFormat profile                           : LC\r\nCodec ID                                 : A_AAC-2\r\nDuration                                 : 1 h 58 min\r\nBit rate                                 : 128 kb/s\r\nChannel(s)                               : 2 channels\r\nChannel positions                        : Front: L R\r\nSampling rate                            : 48.0 kHz\r\nFrame rate                               : 46.875 FPS (1024 SPF)\r\nCompression mode                         : Lossy\r\nStream size                              : 108 MiB (10%)\r\nLanguage                                 : English\r\nDefault                                  : Yes\r\nForced                                   : No","last_updated":"2018-07-19T12:07:24.060Z","parsed":{"xt":"urn:btih:fc518ee2ef60dce52d725cd42bca5d8215c43e96","dn":"Jurassic World Fallen Kingdom 2018 720p HDTS x264 [MW]","tr":["udp://exodus.desync.com:6969","udp://open.demonii.com:1337","udp://tracker.coppersurfer.tk:6969","udp://tracker.leechers-paradise.org:6969","udp://zer0day.ch:1337"],"infoHash":"fc518ee2ef60dce52d725cd42bca5d8215c43e96","infoHashBuffer":{"type":"Buffer","data":[252,81,142,226,239,96,220,229,45,114,92,212,43,202,93,130,21,196,62,150]},"name":"Jurassic World Fallen Kingdom 2018 720p HDTS x264 [MW]","announce":["udp://exodus.desync.com:6969","udp://open.demonii.com:1337","udp://tracker.coppersurfer.tk:6969","udp://tracker.leechers-paradise.org:6969","udp://zer0day.ch:1337"],"urlList":[]}}